<svg width="80" height="56" viewBox="0 0 80 56" fill="none" xmlns="http://www.w3.org/2000/svg">
<path d="M59.6567 68.2131C74.7651 68.2131 87.0128 55.9654 87.0128 40.8571C87.0128 25.7487 74.7651 13.501 59.6567 13.501C44.5484 13.501 32.3007 25.7487 32.3007 40.8571C32.3007 55.9654 44.5484 68.2131 59.6567 68.2131Z" fill="#3F3D56"/>
<path d="M59.6567 65.9486C73.5143 65.9486 84.7482 54.7148 84.7482 40.8571C84.7482 26.9995 73.5143 15.7656 59.6567 15.7656C45.799 15.7656 34.5652 26.9995 34.5652 40.8571C34.5652 54.7148 45.799 65.9486 59.6567 65.9486Z" fill="white"/>
<path d="M59.5662 44.2988C61.4172 44.2988 62.9177 42.7983 62.9177 40.9473C62.9177 39.0963 61.4172 37.5957 59.5662 37.5957C57.7152 37.5957 56.2146 39.0963 56.2146 40.9473C56.2146 42.7983 57.7152 44.2988 59.5662 44.2988Z" fill="#3F3D56"/>
<path d="M60.2908 17.0332H58.8414V19.7507H60.2908V17.0332Z" fill="#3F3D56"/>
<path d="M38.3699 41.672V40.2227H35.6524V41.672H38.3699Z" fill="#3F3D56"/>
<path d="M58.5999 42.4024L59.8385 39.5703L75.3584 48.1658L58.5999 42.4024Z" fill="#3F3D56"/>
<path d="M63.1894 6.88867H56.1239V15.0411H63.1894V6.88867Z" fill="#3F3D56"/>
<path d="M59.6569 9.15317C64.1594 9.15317 67.8093 8.13929 67.8093 6.8886C67.8093 5.63791 64.1594 4.62402 59.6569 4.62402C55.1544 4.62402 51.5044 5.63791 51.5044 6.8886C51.5044 8.13929 55.1544 9.15317 59.6569 9.15317Z" fill="#3F3D56"/>
</svg>
