<svg width="18" height="18" viewBox="0 0 18 18" fill="none" xmlns="http://www.w3.org/2000/svg">
<g id="hugeicons:thumbs-up">
<path id="Vector" d="M16.5 8.6253C16.5 9.02312 16.342 9.40465 16.0607 9.68596C15.7794 9.96726 15.3978 10.1253 15 10.1253C14.4033 10.1253 13.831 9.88824 13.409 9.46629C12.9871 9.04433 12.75 8.47203 12.75 7.8753V4.8753C12.75 4.27856 12.9871 3.70626 13.409 3.28431C13.831 2.86235 14.4033 2.6253 15 2.6253C15.3978 2.6253 15.7794 2.78333 16.0607 3.06464C16.342 3.34594 16.5 3.72747 16.5 4.1253V8.6253ZM6.39075 12.1458L6.591 11.5008C6.7545 10.972 6.83625 10.708 6.77325 10.4988C6.72022 10.329 6.60857 10.1836 6.45825 10.0885C6.27 9.97005 5.98575 9.97005 5.41575 9.97005H5.11275C3.18525 9.97005 2.2215 9.97005 1.76625 9.40005C1.71425 9.33455 1.668 9.2653 1.6275 9.1923C1.27725 8.5563 1.6755 7.69905 2.472 5.98455C3.2025 4.41105 3.5685 3.6243 4.2465 3.16155C4.3125 3.11655 4.38 3.07405 4.449 3.03405C5.163 2.6253 6.048 2.6253 7.818 2.6253H8.20125C10.3463 2.6253 11.418 2.6253 12.084 3.2703C12.75 3.91605 12.75 4.9548 12.75 7.0323V7.7628C12.75 8.85405 12.75 9.40005 12.5565 9.9003C12.3623 10.3998 11.9917 10.81 11.2492 11.632L8.181 15.0295C8.10375 15.115 8.0655 15.157 8.031 15.187C7.87759 15.3193 7.67848 15.3862 7.47633 15.3735C7.27418 15.3607 7.08507 15.2693 6.9495 15.1188C6.9195 15.085 6.88725 15.0378 6.822 14.9433C6.72075 14.7963 6.6705 14.7228 6.62625 14.6493C6.23025 13.996 6.111 13.2198 6.29175 12.4818C6.312 12.4 6.33825 12.3153 6.39075 12.1458Z" stroke="#2A2B2D" stroke-width="1.2" stroke-linecap="round" stroke-linejoin="round"/>
</g>
</svg>
