<svg width="36" height="36" viewBox="0 0 36 36" fill="none" xmlns="http://www.w3.org/2000/svg">
<path d="M22.2639 15.6077L27.9993 2.61621M14.6402 15.8959L8.00049 2.61621M19.9405 14.9968L13.9001 2.61621M22.3996 2.61621L20.7998 6.46202M9.53893 24.1534C9.53893 29.251 13.6713 33.3836 18.7691 33.3836C23.8668 33.3836 27.9993 29.251 27.9993 24.1534C27.9993 19.0557 23.8668 14.9231 18.7691 14.9231C13.6713 14.9231 9.53893 19.0557 9.53893 24.1534Z" stroke="#FFBD20" stroke-width="1.5" stroke-linecap="round" stroke-linejoin="round"/>
<path d="M18.7332 27.5713H17.5261V24.2666C17.5261 24.1755 17.5274 24.0635 17.53 23.9307C17.5326 23.7952 17.5365 23.6572 17.5417 23.5166C17.547 23.3734 17.5522 23.2445 17.5574 23.1299C17.5287 23.1637 17.4701 23.2223 17.3816 23.3057C17.2957 23.3864 17.2149 23.4593 17.1394 23.5244L16.4832 24.0518L15.9011 23.3252L17.741 21.8604H18.7332V27.5713Z" fill="#FFBD20"/>
</svg>
