<svg width="17" height="18" viewBox="0 0 17 18" fill="none" xmlns="http://www.w3.org/2000/svg">
<path d="M1.41658 9.3747C1.41658 8.97688 1.56584 8.59535 1.83151 8.31404C2.09719 8.03274 2.45752 7.8747 2.83325 7.8747C3.39683 7.8747 3.93733 8.11176 4.33585 8.53371C4.73436 8.95567 4.95825 9.52797 4.95825 10.1247V13.1247C4.95825 13.7214 4.73436 14.2937 4.33585 14.7157C3.93733 15.1377 3.39683 15.3747 2.83325 15.3747C2.45752 15.3747 2.09719 15.2167 1.83151 14.9354C1.56584 14.6541 1.41658 14.2725 1.41658 13.8747V9.3747ZM10.9642 5.8542L10.7751 6.4992C10.6207 7.02795 10.5435 7.29195 10.603 7.5012C10.653 7.67098 10.7585 7.81638 10.9005 7.91145C11.0782 8.02995 11.3467 8.02995 11.885 8.02995H12.1712C13.9916 8.02995 14.9018 8.02995 15.3318 8.59995C15.3809 8.66545 15.4246 8.7347 15.4628 8.8077C15.7936 9.4437 15.4175 10.301 14.6652 12.0155C13.9753 13.589 13.6297 14.3757 12.9893 14.8385C12.927 14.8835 12.8632 14.926 12.7981 14.966C12.1237 15.3747 11.2879 15.3747 9.61625 15.3747H9.25429C7.22845 15.3747 6.21625 15.3747 5.58725 14.7297C4.95825 14.084 4.95825 13.0452 4.95825 10.9677V10.2372C4.95825 9.14595 4.95825 8.59995 5.141 8.0997C5.32446 7.6002 5.67437 7.18995 6.37562 6.36795L9.27341 2.97045C9.34637 2.88495 9.3825 2.84295 9.41508 2.81295C9.55997 2.6807 9.74801 2.61378 9.93893 2.62654C10.1299 2.6393 10.3085 2.73071 10.4365 2.8812C10.4648 2.91495 10.4953 2.9622 10.5569 3.0567C10.6525 3.2037 10.7 3.2772 10.7418 3.3507C11.1158 4.00395 11.2284 4.7802 11.0577 5.5182C11.0386 5.59995 11.0138 5.6847 10.9642 5.8542Z" stroke="#2A2B2D" stroke-width="1.35" stroke-linecap="round" stroke-linejoin="round"/>
</svg>
