<svg width="36" height="36" viewBox="0 0 36 36" fill="none" xmlns="http://www.w3.org/2000/svg">
<path d="M22.2639 15.6077L27.9993 2.61621M14.6402 15.8959L8.00049 2.61621M19.9405 14.9968L13.9001 2.61621M22.3996 2.61621L20.7998 6.46202M9.53893 24.1534C9.53893 29.251 13.6713 33.3836 18.7691 33.3836C23.8668 33.3836 27.9993 29.251 27.9993 24.1534C27.9993 19.0557 23.8668 14.9231 18.7691 14.9231C13.6713 14.9231 9.53893 19.0557 9.53893 24.1534Z" stroke="#ABB5BC" stroke-width="1.5" stroke-linecap="round" stroke-linejoin="round"/>
<path d="M19.741 27.5713H15.7488V26.7314L17.1824 25.2822C17.4714 24.9854 17.7032 24.738 17.8777 24.54C18.0548 24.3395 18.1824 24.1572 18.2605 23.9932C18.3412 23.8291 18.3816 23.6533 18.3816 23.4658C18.3816 23.2393 18.3178 23.07 18.1902 22.958C18.0652 22.8434 17.8972 22.7861 17.6863 22.7861C17.4649 22.7861 17.2501 22.8369 17.0417 22.9385C16.8334 23.04 16.616 23.1846 16.3894 23.3721L15.7332 22.5947C15.8972 22.4541 16.0704 22.3213 16.2527 22.1963C16.4376 22.0713 16.6511 21.971 16.8933 21.8955C17.1381 21.8174 17.4311 21.7783 17.7722 21.7783C18.1472 21.7783 18.4688 21.846 18.7371 21.9814C19.0079 22.1169 19.2162 22.3018 19.3621 22.5361C19.5079 22.7679 19.5808 23.0309 19.5808 23.3252C19.5808 23.6403 19.5183 23.9281 19.3933 24.1885C19.2683 24.4489 19.086 24.7067 18.8464 24.9619C18.6095 25.2171 18.323 25.4997 17.9871 25.8096L17.2527 26.501V26.5557H19.741V27.5713Z" fill="#ABB5BC"/>
</svg>
