<svg width="378" height="292" viewBox="0 0 378 292" fill="none" xmlns="http://www.w3.org/2000/svg">
<g clip-path="url(#clip0_1169_7231)">
<path d="M371.592 253.327C370.003 240.544 362.086 227.948 349.902 223.788C354.707 236.946 354.706 251.38 349.899 264.538C348.027 269.605 345.418 275.046 347.179 280.154C348.274 283.331 350.955 285.763 353.951 287.283C356.947 288.803 360.273 289.528 363.556 290.238L364.202 290.773C369.415 278.994 373.18 266.111 371.592 253.327Z" fill="#F0F0F0"/>
<path d="M349.781 224.03C356.876 231.986 361.286 241.976 362.384 252.582C362.661 254.861 362.578 257.169 362.136 259.422C361.635 261.603 360.56 263.609 359.022 265.233C357.618 266.777 356.004 268.193 354.999 270.05C354.5 271.009 354.208 272.063 354.143 273.142C354.079 274.221 354.243 275.302 354.625 276.314C355.512 278.859 357.259 280.933 359.039 282.902C361.015 285.088 363.102 287.328 363.941 290.226C364.043 290.578 364.582 290.399 364.48 290.048C363.019 285.006 358.127 282.141 355.794 277.599C354.705 275.48 354.248 273.019 355.269 270.782C356.161 268.825 357.825 267.364 359.26 265.814C360.783 264.251 361.901 262.339 362.516 260.245C363.071 258.022 363.243 255.72 363.026 253.439C362.62 248.296 361.408 243.249 359.434 238.482C357.212 233.03 354.075 227.998 350.157 223.605C349.914 223.333 349.54 223.76 349.781 224.03Z" fill="white"/>
<path d="M362.232 249.146C363.985 248.72 365.53 247.684 366.591 246.223C367.651 244.763 368.158 242.973 368.022 241.173C367.993 240.808 367.426 240.836 367.455 241.201C367.585 242.877 367.113 244.545 366.122 245.903C365.132 247.261 363.689 248.22 362.054 248.606C361.699 248.691 361.879 249.23 362.232 249.146Z" fill="white"/>
<path d="M359.837 264.544C356.67 262.652 354.333 259.636 353.29 256.096C353.187 255.745 352.648 255.923 352.751 256.274C353.843 259.955 356.282 263.09 359.581 265.051C359.896 265.238 360.15 264.73 359.837 264.544Z" fill="white"/>
<path d="M356.686 233.568C356.042 233.874 355.332 234.015 354.62 233.979C353.908 233.943 353.216 233.73 352.606 233.36C352.294 233.17 352.041 233.678 352.351 233.868C353.026 234.273 353.791 234.507 354.577 234.549C355.364 234.59 356.149 234.439 356.864 234.107C356.934 234.081 356.991 234.03 357.025 233.963C357.058 233.897 357.065 233.82 357.044 233.748C357.02 233.677 356.969 233.618 356.902 233.584C356.835 233.55 356.757 233.544 356.686 233.568Z" fill="white"/>
<path d="M312.765 246.622C312.957 246.747 313.148 246.871 313.34 247.001C315.906 248.689 318.33 250.583 320.59 252.664C320.767 252.823 320.944 252.985 321.117 253.148C326.506 258.221 330.908 264.25 334.098 270.931C335.365 273.59 336.428 276.342 337.278 279.163C338.451 283.059 339.414 287.376 341.736 290.563C341.975 290.898 342.234 291.218 342.512 291.521H363.5C363.548 291.497 363.596 291.478 363.644 291.454L364.482 291.492C364.448 291.344 364.41 291.19 364.376 291.042C364.357 290.956 364.333 290.869 364.314 290.783C364.3 290.726 364.285 290.668 364.276 290.615C364.271 290.596 364.266 290.577 364.262 290.563C364.252 290.51 364.237 290.462 364.228 290.414C364.017 289.556 363.8 288.699 363.577 287.841C363.577 287.836 363.577 287.836 363.572 287.831C361.853 281.3 359.573 274.855 356.389 268.961C356.293 268.784 356.198 268.602 356.092 268.425C354.642 265.776 352.978 263.25 351.117 260.873C350.093 259.574 349.005 258.328 347.856 257.14C344.88 254.075 341.442 251.497 337.666 249.502C330.138 245.525 321.423 244.001 313.378 246.43C313.172 246.493 312.971 246.555 312.765 246.622Z" fill="#F0F0F0"/>
<path d="M312.813 246.889C323.264 248.966 332.796 254.286 340.054 262.092C341.646 263.745 342.968 265.639 343.971 267.703C344.883 269.746 345.232 271.996 344.981 274.22C344.789 276.298 344.352 278.401 344.668 280.489C344.845 281.556 345.246 282.573 345.844 283.474C346.442 284.374 347.223 285.138 348.137 285.716C350.376 287.214 353.019 287.817 355.625 288.317C358.518 288.872 361.532 289.403 363.946 291.211C364.239 291.431 364.561 290.964 364.269 290.745C360.069 287.599 354.439 288.259 349.844 286.038C347.699 285.001 345.854 283.312 345.323 280.911C344.858 278.811 345.307 276.642 345.52 274.54C345.796 272.374 345.539 270.174 344.769 268.131C343.875 266.022 342.628 264.081 341.082 262.39C337.663 258.529 333.659 255.229 329.215 252.612C324.16 249.597 318.628 247.47 312.856 246.323C312.499 246.252 312.458 246.818 312.813 246.889Z" fill="white"/>
<path d="M337.865 259.44C339.008 258.044 339.619 256.286 339.587 254.481C339.555 252.676 338.883 250.941 337.69 249.586C337.448 249.313 337.012 249.677 337.255 249.95C338.367 251.21 338.993 252.826 339.02 254.507C339.046 256.188 338.471 257.823 337.398 259.117C337.166 259.399 337.633 259.72 337.865 259.44Z" fill="white"/>
<path d="M345.217 273.179C341.551 273.576 337.869 272.575 334.907 270.377C334.614 270.159 334.291 270.626 334.584 270.844C337.671 273.126 341.504 274.159 345.319 273.737C345.682 273.697 345.579 273.138 345.217 273.179Z" fill="white"/>
<path d="M324.064 250.343C323.734 250.976 323.252 251.517 322.662 251.917C322.071 252.317 321.391 252.564 320.681 252.636C320.318 252.672 320.421 253.23 320.783 253.195C321.566 253.111 322.317 252.838 322.971 252.397C323.624 251.956 324.159 251.362 324.53 250.667C324.571 250.604 324.586 250.528 324.573 250.455C324.559 250.382 324.518 250.316 324.459 250.272C324.397 250.229 324.32 250.213 324.246 250.226C324.173 250.24 324.107 250.282 324.064 250.343Z" fill="white"/>
<path d="M210.076 15.6213C209.57 16.2527 209.208 16.9875 209.017 17.7739C208.826 18.5602 208.809 19.3791 208.968 20.1726C209.127 20.9662 209.457 21.7153 209.937 22.367C210.417 23.0188 211.033 23.5574 211.743 23.9449L208.508 43.3509L217.846 39.2037L219.487 21.4113C220.059 20.1745 220.157 18.7708 219.763 17.4663C219.37 16.1617 218.512 15.047 217.351 14.3333C216.191 13.6196 214.81 13.3565 213.469 13.5939C212.128 13.8313 210.921 14.5526 210.076 15.6213Z" fill="#9E616A"/>
<path d="M294.088 284.097L286.452 284.096L282.819 254.624L294.089 254.625L294.088 284.097Z" fill="#9E616A"/>
<path d="M296.035 291.504L271.414 291.503V291.191C271.414 288.648 272.424 286.209 274.221 284.41C276.018 282.612 278.456 281.602 280.997 281.602H280.998L296.036 281.602L296.035 291.504Z" fill="#2F2E41"/>
<path d="M242.85 284.097L235.214 284.096L231.582 254.624L242.852 254.625L242.85 284.097Z" fill="#9E616A"/>
<path d="M244.798 291.504L220.177 291.503V291.191C220.177 288.648 221.186 286.209 222.984 284.41C224.781 282.612 227.218 281.602 229.76 281.602H229.76L244.798 281.602L244.798 291.504Z" fill="#2F2E41"/>
<path d="M239.667 146.569L236.813 150.326C236.813 150.326 236.555 152.08 232.225 166.371L229.851 273.791H244.216L263.419 187.843L283.348 275.516L295.801 276.251L295.215 176.601C295.215 176.601 296.788 156.101 291.213 152.293C285.637 148.486 239.667 146.569 239.667 146.569Z" fill="#2F2E41"/>
<path d="M258.932 56.3004C267.258 56.3004 274.007 49.5467 274.007 41.2156C274.007 32.8845 267.258 26.1309 258.932 26.1309C250.607 26.1309 243.858 32.8845 243.858 41.2156C243.858 49.5467 250.607 56.3004 258.932 56.3004Z" fill="#9E616A"/>
<path d="M274.098 43.5776L273.849 43.0794C273.464 42.309 270.276 35.9037 269.876 34.2567L265.865 34.7289L255.418 34.7305L256.87 32.5518L253.032 33.0527C251.629 33.2233 250.288 33.7292 249.121 34.5277C248.406 35.0034 247.801 35.6276 247.348 36.3578C245.977 38.7069 243.882 42.5493 243.861 42.5879L243.661 42.9554L241.921 40.0258C241.898 39.9121 239.741 28.6545 246.959 24.8365C247.332 24.0798 250.504 18.128 258.002 18.5297C258.826 17.5895 259.987 17.0119 261.234 16.9221C262.946 16.8327 264.724 17.7328 266.509 19.6086C268.88 22.0999 272.127 25.5117 274.091 29.3L274.633 30.0735C275.403 31.1806 275.784 32.5118 275.717 33.8587C276.134 36.0085 275.986 38.2298 275.287 40.305L274.098 43.5776Z" fill="#2F2E41"/>
<path d="M270.418 59.1387L278.76 63.7521L295.145 68.3431L290.254 111.252L291.144 153.517C291.144 153.517 263.408 172.53 236.813 150.326V97.1252L238.386 68.3431C238.386 68.3431 244.751 66.5339 247.955 69.6548L254.033 61.7546L270.418 59.1387Z" fill="#CBCDD2"/>
<path d="M242.061 72.2965L238.386 68.3433L218.134 66.0475L220.034 34.9206L208.992 27.0381L200.88 70.859L238.354 97.1252L242.061 72.2965Z" fill="#CBCDD2"/>
<path d="M283.115 167.484C282.964 166.689 282.989 165.87 283.189 165.086C283.388 164.301 283.757 163.57 284.269 162.944C284.781 162.318 285.425 161.811 286.154 161.461C286.883 161.11 287.679 160.923 288.488 160.914L294.724 142.256L301.029 150.301L294.141 166.786C294.066 168.146 293.495 169.432 292.536 170.4C291.577 171.367 290.297 171.949 288.938 172.035C287.579 172.121 286.236 171.706 285.163 170.867C284.089 170.028 283.361 168.824 283.115 167.484Z" fill="#9E616A"/>
<path d="M288.989 73.2555L295.145 68.3438C295.145 68.3438 301.44 71.818 303.355 78.0473C305.271 84.2766 308.623 119.736 308.623 119.736L299.524 165.258L289.35 158.197L294.257 122.132L285.637 95.7769L288.989 73.2555Z" fill="#CBCDD2"/>
<path d="M211.819 0H56.5731V37.7508H211.819V0Z" fill="#E6E6E6"/>
<path d="M60.6467 33.6754H207.746V4.07715H60.6467V33.6754Z" fill="white"/>
<path d="M88.6642 30.151C94.8877 30.151 99.9328 25.1025 99.9328 18.8748C99.9328 12.6472 94.8877 7.59863 88.6642 7.59863C82.4408 7.59863 77.3956 12.6472 77.3956 18.8748C77.3956 25.1025 82.4408 30.151 88.6642 30.151Z" fill="#235391"/>
<path d="M190.997 14.4629H115.611V16.9142H190.997V14.4629Z" fill="#235391"/>
<path d="M190.997 20.8359H115.611V23.2873H190.997V20.8359Z" fill="#235391"/>
<path d="M0 57.3779L131.357 66.9657V101.478L0 99.0373V57.3779Z" fill="#E6E6E6"/>
<path d="M4.13794 94.6413L128.489 97.6847V70.4999L4.13794 62.1543V94.6413Z" fill="white"/>
<path d="M31.4304 67.7133C32.866 67.806 34.2641 68.2111 35.5272 68.9002C36.794 69.5932 37.9178 70.5206 38.8389 71.6331C39.796 72.784 40.5458 74.0928 41.0545 75.501C41.5913 76.9825 41.8652 78.5466 41.8639 80.1224C41.8695 81.6745 41.5953 83.2148 41.0545 84.6695C40.5529 86.0204 39.8012 87.2646 38.8389 88.3368C37.9148 89.3671 36.7871 90.1944 35.5272 90.7664C34.2408 91.3444 32.8398 91.622 31.4304 91.578C29.9879 91.5322 28.5733 91.1685 27.2874 90.5128C25.9849 89.8463 24.824 88.9331 23.8693 87.8239C22.8676 86.6644 22.0812 85.335 21.5472 83.8985C20.9806 82.3813 20.691 80.7745 20.6922 79.1548C20.6859 77.5591 20.9758 75.9762 21.5472 74.4866C22.0743 73.1108 22.8631 71.8505 23.8699 70.7753C24.8288 69.7508 25.9938 68.9412 27.288 68.3998C28.5983 67.8575 30.0153 67.6227 31.4304 67.7133Z" fill="#E6E6E6"/>
<path d="M55.8958 76.2529L116.418 79.409V81.7029L55.8958 78.7603V76.2529Z" fill="#E6E6E6"/>
<path d="M55.8958 82.7734L116.418 85.3733V87.6671L55.8958 85.2808V82.7734Z" fill="#E6E6E6"/>
<path d="M0 127.487L131.357 125.047V159.559L0 169.147V127.487Z" fill="#E6E6E6"/>
<path d="M4.13794 164.371L128.489 156.026V128.844L4.13794 131.887V164.371Z" fill="white"/>
<path d="M20.7012 146.82C20.765 145.201 21.1193 143.608 21.7471 142.115C22.3367 140.708 23.1748 139.419 24.2213 138.309C25.2173 137.249 26.4115 136.395 27.7363 135.796C29.0465 135.205 30.4714 134.914 31.908 134.942C33.3178 134.971 34.7027 135.32 35.958 135.963C37.1924 136.6 38.2828 137.485 39.1616 138.561C40.0781 139.682 40.7777 140.965 41.2246 142.342C41.7058 143.823 41.9181 145.378 41.8515 146.933C41.7911 148.508 41.456 150.059 40.8613 151.518C40.2989 152.901 39.4983 154.175 38.4959 155.281C37.5331 156.348 36.3744 157.219 35.0828 157.849C33.793 158.475 32.3812 158.809 30.9477 158.828C29.5283 158.845 28.1238 158.536 26.8419 157.926C25.5716 157.316 24.4434 156.446 23.5302 155.372C22.5699 154.244 21.8348 152.942 21.3647 151.537C20.8556 150.019 20.6307 148.42 20.7012 146.82Z" fill="#E6E6E6"/>
<path d="M55.8958 141.245L116.418 138.858V141.152L55.8958 143.752V141.245Z" fill="#E6E6E6"/>
<path d="M55.8958 147.764L116.418 144.822V147.116L55.8958 150.272V147.764Z" fill="#E6E6E6"/>
<path d="M377.521 292H195.077C194.95 292 194.828 291.95 194.739 291.86C194.649 291.77 194.598 291.648 194.598 291.521C194.598 291.394 194.649 291.272 194.739 291.182C194.828 291.092 194.95 291.042 195.077 291.042H377.521C377.648 291.042 377.77 291.092 377.86 291.182C377.95 291.272 378 291.394 378 291.521C378 291.648 377.95 291.77 377.86 291.86C377.77 291.95 377.648 292 377.521 292Z" fill="#CACACA"/>
</g>
<defs>
<clipPath id="clip0_1169_7231">
<rect width="378" height="292" fill="white"/>
</clipPath>
</defs>
</svg>
