<svg width="36" height="36" viewBox="0 0 36 36" fill="none" xmlns="http://www.w3.org/2000/svg">
<path d="M22.2639 15.6077L27.9993 2.61621M14.6402 15.8959L8.00049 2.61621M19.9405 14.9968L13.9001 2.61621M22.3996 2.61621L20.7998 6.46202M9.53893 24.1534C9.53893 29.251 13.6713 33.3836 18.7691 33.3836C23.8668 33.3836 27.9993 29.251 27.9993 24.1534C27.9993 19.0557 23.8668 14.9231 18.7691 14.9231C13.6713 14.9231 9.53893 19.0557 9.53893 24.1534Z" stroke="#864634" stroke-width="1.5" stroke-linecap="round" stroke-linejoin="round"/>
<path d="M19.5183 23.1377C19.5183 23.4007 19.4636 23.6286 19.3542 23.8213C19.2449 24.014 19.0964 24.1715 18.9089 24.2939C18.724 24.4163 18.5157 24.5062 18.2839 24.5635V24.5869C18.7423 24.6442 19.0899 24.7848 19.3269 25.0088C19.5665 25.2327 19.6863 25.5322 19.6863 25.9072C19.6863 26.2406 19.6042 26.5387 19.4402 26.8018C19.2787 27.0648 19.0287 27.2718 18.6902 27.4229C18.3516 27.5739 17.9154 27.6494 17.3816 27.6494C17.0665 27.6494 16.7722 27.6234 16.4988 27.5713C16.2279 27.5218 15.9727 27.445 15.7332 27.3408V26.3135C15.9779 26.4385 16.2345 26.5335 16.5027 26.5986C16.7709 26.6611 17.0209 26.6924 17.2527 26.6924C17.685 26.6924 17.9871 26.6182 18.1589 26.4697C18.3334 26.3187 18.4207 26.1077 18.4207 25.8369C18.4207 25.6781 18.3803 25.5439 18.2996 25.4346C18.2188 25.3252 18.0782 25.2419 17.8777 25.1846C17.6798 25.1273 17.4024 25.0986 17.0457 25.0986H16.6121V24.1729H17.0535C17.405 24.1729 17.672 24.1403 17.8542 24.0752C18.0391 24.0075 18.1641 23.9163 18.2292 23.8018C18.297 23.6846 18.3308 23.5518 18.3308 23.4033C18.3308 23.2002 18.2683 23.0413 18.1433 22.9268C18.0183 22.8122 17.81 22.7549 17.5183 22.7549C17.336 22.7549 17.1694 22.7783 17.0183 22.8252C16.8699 22.8695 16.7358 22.9242 16.616 22.9893C16.4962 23.0518 16.3907 23.113 16.2996 23.1729L15.741 22.3408C15.9649 22.1794 16.2266 22.0452 16.5261 21.9385C16.8282 21.8317 17.1876 21.7783 17.6042 21.7783C18.1928 21.7783 18.6589 21.8968 19.0027 22.1338C19.3464 22.3708 19.5183 22.7054 19.5183 23.1377Z" fill="#864634"/>
</svg>
