<svg width="97" height="76" viewBox="0 0 97 76" fill="none" xmlns="http://www.w3.org/2000/svg">
<g clip-path="url(#clip0_1169_7424)">
<path d="M89.446 69.2344L93.7867 69.9128C95.2561 68.1338 96.2689 66.023 96.7374 63.7637C93.5634 66.3618 88.7365 64.9812 84.8877 66.3996C83.6907 66.8512 82.6107 67.5664 81.7277 68.4922C80.8446 69.4179 80.1812 70.5305 79.7867 71.7475L77.6653 74.0299C79.5856 74.7901 81.6478 75.125 83.71 75.0114C85.7722 74.8979 87.7852 74.3387 89.6104 73.3722C90.629 72.8199 91.5739 72.1415 92.423 71.3531C90.9042 70.3967 89.446 69.2344 89.446 69.2344Z" fill="#F2F2F2"/>
<path d="M87.905 62.292L92.0927 60.9633C92.6145 58.7156 92.5797 56.3747 91.9913 54.1436C90.3092 57.8846 85.3732 58.8015 82.561 61.7876C81.691 62.7256 81.0433 63.8474 80.6658 65.0698C80.2883 66.2922 80.1908 67.5839 80.3803 68.8491L79.4995 71.838C81.5573 71.662 83.5525 71.042 85.3475 70.0207C87.1426 68.9994 88.695 67.6011 89.8976 65.9221C90.563 64.9735 91.1062 63.9449 91.5145 62.8605C89.7286 62.6819 87.905 62.292 87.905 62.292Z" fill="#F2F2F2"/>
<path d="M96.7611 75.4126C96.7611 75.435 96.7568 75.4572 96.7482 75.4779C96.7397 75.4986 96.7271 75.5174 96.7113 75.5333C96.6955 75.5491 96.6766 75.5616 96.6559 75.5702C96.6352 75.5787 96.613 75.5831 96.5906 75.583H0.170417C0.12522 75.583 0.0818731 75.5651 0.0499137 75.5331C0.0179544 75.5011 0 75.4578 0 75.4126C0 75.3674 0.0179544 75.3241 0.0499137 75.2921C0.0818731 75.2601 0.12522 75.2422 0.170417 75.2422H96.5906C96.613 75.2421 96.6352 75.2465 96.6559 75.255C96.6766 75.2636 96.6955 75.2761 96.7113 75.2919C96.7271 75.3078 96.7397 75.3266 96.7482 75.3473C96.7568 75.368 96.7611 75.3902 96.7611 75.4126Z" fill="#CCCCCC"/>
<path d="M39.9547 68.1466C56.9593 68.1466 70.7443 54.3617 70.7443 37.357C70.7443 20.3524 56.9593 6.56738 39.9547 6.56738C22.95 6.56738 9.16504 20.3524 9.16504 37.357C9.16504 54.3617 22.95 68.1466 39.9547 68.1466Z" fill="#E6E6E6"/>
<path d="M66.4477 37.3577C66.4508 41.4916 65.4852 45.5688 63.6282 49.2621C61.7711 52.9555 59.0745 56.1623 55.7544 58.6254C55.5325 58.7915 55.3062 58.9534 55.0785 59.1109C50.6388 62.197 45.3613 63.8511 39.9543 63.8511C34.5474 63.8511 29.2699 62.197 24.8302 59.1109C24.6025 58.9534 24.3762 58.7915 24.1542 58.6254C20.8365 56.1602 18.1415 52.9529 16.2847 49.26C14.428 45.5671 13.4609 41.4911 13.4609 37.3577C13.4609 33.2243 14.428 29.1482 16.2847 25.4553C18.1415 21.7624 20.8365 18.5551 24.1542 16.0899C24.3762 15.9238 24.6025 15.762 24.8302 15.6044C29.2699 12.5183 34.5474 10.8643 39.9543 10.8643C45.3613 10.8643 50.6388 12.5183 55.0785 15.6044C55.3062 15.762 55.5325 15.9238 55.7544 16.0899C59.0745 18.553 61.7711 21.7598 63.6282 25.4532C65.4852 29.1466 66.4508 33.2237 66.4477 37.3577Z" fill="white"/>
<path d="M39.9545 61.5594C53.321 61.5594 64.1566 50.7238 64.1566 37.3574C64.1566 23.9909 53.321 13.1553 39.9545 13.1553C26.5881 13.1553 15.7524 23.9909 15.7524 37.3574C15.7524 50.7238 26.5881 61.5594 39.9545 61.5594Z" fill="#235391"/>
<path opacity="0.2" d="M40.0177 13.2236C39.6508 13.2236 39.2862 13.2332 38.9233 13.2494C45.0402 13.7869 50.7241 16.6295 54.8235 21.2013C58.9228 25.7731 61.131 31.7322 61.0007 37.8714C60.8704 44.0105 58.4113 49.8705 54.1217 54.2643C49.8321 58.658 44.0327 61.2569 37.8984 61.5344C38.597 61.595 39.3035 61.6278 40.0177 61.6278C46.4365 61.6278 52.5924 59.0779 57.1312 54.5392C61.6699 50.0004 64.2198 43.8445 64.2198 37.4257C64.2198 31.0069 61.6699 24.851 57.1312 20.3123C52.5924 15.7735 46.4365 13.2236 40.0177 13.2236Z" fill="black"/>
<path d="M40.0262 11.4375C39.8174 11.4379 39.6173 11.521 39.4696 11.6686C39.322 11.8162 39.2389 12.0164 39.2385 12.2251V15.6621C39.2385 15.871 39.3215 16.0714 39.4692 16.2191C39.6169 16.3668 39.8173 16.4498 40.0262 16.4498C40.2351 16.4498 40.4354 16.3668 40.5831 16.2191C40.7308 16.0714 40.8138 15.871 40.8138 15.6621V12.2251C40.8134 12.0164 40.7303 11.8162 40.5827 11.6686C40.4351 11.521 40.235 11.4379 40.0262 11.4375Z" fill="white"/>
<path d="M55.7544 16.0907C55.5324 15.9245 55.3062 15.7627 55.0785 15.6052C54.9418 15.5963 54.8052 15.6232 54.6822 15.6832C54.5591 15.7432 54.4538 15.8343 54.3767 15.9474L52.442 18.7873C52.3245 18.9599 52.2803 19.1721 52.3192 19.3773C52.3582 19.5825 52.477 19.7638 52.6497 19.8814C52.8223 19.9989 53.0345 20.0431 53.2397 20.0041C53.4449 19.9652 53.6262 19.8463 53.7438 19.6737L55.6785 16.8339C55.7521 16.7262 55.7976 16.6017 55.8109 16.4719C55.8241 16.3421 55.8047 16.211 55.7544 16.0907Z" fill="white"/>
<path d="M64.5445 29.0384C64.5056 28.9426 64.4482 28.8555 64.3756 28.7819C64.303 28.7084 64.2167 28.6498 64.1214 28.6097C64.0262 28.5695 63.924 28.5485 63.8207 28.5479C63.7173 28.5472 63.6149 28.5669 63.5191 28.6059L60.3342 29.8991C60.1409 29.9778 59.9867 30.1301 59.9056 30.3225C59.8245 30.5148 59.8231 30.7315 59.9017 30.9249C59.9802 31.1183 60.1324 31.2726 60.3247 31.3539C60.5169 31.4351 60.7336 31.4368 60.9271 31.3584L64.112 30.0652C64.3053 29.986 64.4593 29.8336 64.5403 29.6411C64.6214 29.4487 64.6229 29.2319 64.5445 29.0384Z" fill="white"/>
<path d="M27.4669 18.7873L25.5322 15.9474C25.4551 15.8343 25.3498 15.7432 25.2267 15.6832C25.1037 15.6232 24.9671 15.5963 24.8305 15.6052C24.6028 15.7627 24.3765 15.9245 24.1545 16.0907C24.1042 16.211 24.0848 16.3421 24.098 16.4719C24.1113 16.6017 24.1568 16.7262 24.2304 16.8339L26.1652 19.6737C26.2827 19.8463 26.464 19.9652 26.6692 20.0041C26.8744 20.0431 27.0866 19.9989 27.2593 19.8814C27.4319 19.7638 27.5507 19.5825 27.5897 19.3773C27.6286 19.1721 27.5845 18.9599 27.4669 18.7873Z" fill="white"/>
<path d="M19.5747 29.8999L16.3898 28.6067C16.1963 28.5281 15.9795 28.5296 15.7871 28.6109C15.5947 28.6921 15.4424 28.8465 15.3638 29.0399C15.2852 29.2334 15.2867 29.4502 15.3679 29.6426C15.4491 29.835 15.6034 29.9873 15.7969 30.066L18.9818 31.3591C19.1753 31.4375 19.392 31.4359 19.5843 31.3546C19.7765 31.2733 19.9287 31.1191 20.0072 30.9257C20.0858 30.7323 20.0844 30.5156 20.0033 30.3232C19.9222 30.1309 19.768 29.9786 19.5747 29.8999Z" fill="white"/>
<path d="M40.0262 58.2666C39.8174 58.267 39.6173 58.3501 39.4696 58.4977C39.322 58.6453 39.2389 58.8455 39.2385 59.0542V62.4912C39.2385 62.7001 39.3215 62.9005 39.4692 63.0482C39.6169 63.1959 39.8173 63.2789 40.0262 63.2789C40.2351 63.2789 40.4354 63.1959 40.5831 63.0482C40.7308 62.9005 40.8138 62.7001 40.8138 62.4912V59.0542C40.8134 58.8455 40.7303 58.6453 40.5827 58.4977C40.4351 58.3501 40.235 58.267 40.0262 58.2666Z" fill="white"/>
<path d="M55.6785 57.8823L53.7438 55.0425C53.6856 54.957 53.6111 54.8838 53.5246 54.8271C53.4381 54.7704 53.3413 54.7313 53.2397 54.7121C53.1381 54.6928 53.0337 54.6937 52.9325 54.7148C52.8312 54.7358 52.7351 54.7766 52.6497 54.8348C52.5642 54.893 52.491 54.9675 52.4343 55.054C52.3776 55.1405 52.3385 55.2373 52.3192 55.3389C52.2999 55.4405 52.3009 55.5449 52.3219 55.6461C52.343 55.7474 52.3838 55.8435 52.442 55.9289L54.3767 58.7687C54.4538 58.8819 54.5591 58.973 54.6822 59.033C54.8052 59.093 54.9418 59.1199 55.0785 59.111C55.3062 58.9535 55.5324 58.7917 55.7544 58.6255C55.8047 58.5051 55.8241 58.3741 55.8109 58.2443C55.7976 58.1145 55.7521 57.99 55.6785 57.8823Z" fill="white"/>
<path d="M64.1121 44.6499L60.9271 43.3567C60.7336 43.2781 60.5168 43.2796 60.3244 43.3609C60.132 43.4421 59.9798 43.5965 59.9012 43.7899C59.8226 43.9834 59.824 44.2002 59.9052 44.3926C59.9865 44.585 60.1408 44.7373 60.3342 44.816L63.5192 46.1091C63.7127 46.1875 63.9293 46.1859 64.1216 46.1046C64.3139 46.0233 64.466 45.8691 64.5446 45.6757C64.6232 45.4823 64.6218 45.2656 64.5406 45.0732C64.4595 44.8809 64.3054 44.7286 64.1121 44.6499Z" fill="white"/>
<path d="M27.2593 54.8348C27.0866 54.7173 26.8744 54.6731 26.6692 54.7121C26.464 54.751 26.2827 54.8698 26.1652 55.0424L24.2304 57.8822C24.1568 57.9899 24.1113 58.1144 24.098 58.2442C24.0848 58.374 24.1042 58.5051 24.1545 58.6255C24.3765 58.7916 24.6028 58.9534 24.8305 59.1109C24.9671 59.1198 25.1037 59.093 25.2267 59.0329C25.3498 58.9729 25.4551 58.8818 25.5322 58.7687L27.4669 55.9289C27.5251 55.8434 27.5659 55.7473 27.587 55.646C27.6081 55.5448 27.609 55.4404 27.5897 55.3388C27.5704 55.2372 27.5313 55.1404 27.4746 55.0539C27.4179 54.9674 27.3447 54.893 27.2593 54.8348Z" fill="white"/>
<path d="M20.0072 43.7894C19.9683 43.6936 19.9109 43.6065 19.8383 43.5329C19.7657 43.4594 19.6793 43.4008 19.5841 43.3607C19.4889 43.3205 19.3867 43.2995 19.2833 43.2988C19.18 43.2982 19.0775 43.3179 18.9818 43.3569L15.7969 44.65C15.6035 44.7288 15.4494 44.8811 15.3683 45.0734C15.2872 45.2658 15.2857 45.4825 15.3643 45.6759C15.4429 45.8693 15.595 46.0235 15.7873 46.1048C15.9796 46.1861 16.1963 46.1877 16.3897 46.1093L19.5747 44.8162C19.7679 44.737 19.9219 44.5845 20.003 44.3921C20.084 44.1996 20.0855 43.9829 20.0072 43.7894Z" fill="white"/>
<path d="M41.048 36.9661C41.1208 37.3967 41.0197 37.8385 40.7671 38.1946C40.5145 38.5508 40.131 38.7922 39.7006 38.8659L25.7238 41.2433C25.5106 41.2796 25.2924 41.2735 25.0815 41.2254C24.8706 41.1773 24.6713 41.0882 24.4949 40.9631C24.3185 40.8379 24.1685 40.6793 24.0534 40.4962C23.9383 40.3131 23.8604 40.1091 23.8241 39.8959C23.7878 39.6827 23.7939 39.4644 23.842 39.2536C23.8901 39.0427 23.9792 38.8434 24.1044 38.667C24.2295 38.4906 24.3881 38.3405 24.5712 38.2254C24.7543 38.1103 24.9583 38.0324 25.1715 37.9962L39.1483 35.6187C39.5788 35.546 40.0206 35.647 40.3768 35.8996C40.7329 36.1522 40.9743 36.5358 41.048 36.9661Z" fill="#3F3D56"/>
<path d="M55.7583 52.452C55.5576 52.6539 55.2849 52.7679 55.0001 52.7691C54.7153 52.7702 54.4418 52.6583 54.2394 52.458L39.1936 37.5302C38.9917 37.3295 38.8777 37.0568 38.8767 36.7721C38.8757 36.4874 38.9878 36.214 39.1883 36.0119C39.3888 35.8098 39.6614 35.6956 39.946 35.6943C40.2307 35.6931 40.5043 35.8049 40.7065 36.0052L55.7524 50.933C55.9543 51.1338 56.0683 51.4065 56.0694 51.6913C56.0706 51.976 55.9587 52.2496 55.7583 52.452Z" fill="#3F3D56"/>
<path d="M39.9542 39.2195C40.9824 39.2195 41.8159 38.386 41.8159 37.3578C41.8159 36.3296 40.9824 35.4961 39.9542 35.4961C38.926 35.4961 38.0925 36.3296 38.0925 37.3578C38.0925 38.386 38.926 39.2195 39.9542 39.2195Z" fill="#CCCCCC"/>
<path d="M27.1312 5.07624C24.2735 9.56902 19.9133 12.5506 14.5361 14.5094C14.4299 14.589 14.309 14.6468 14.1804 14.6797C14.0517 14.7126 13.9179 14.7198 13.7865 14.7009C13.6551 14.682 13.5287 14.6375 13.4145 14.5698C13.3003 14.5021 13.2006 14.4125 13.121 14.3063C10.2002 10.4064 10.8597 4.83263 14.7146 1.85266C15.6466 1.13345 16.7121 0.606544 17.8494 0.302518C18.9867 -0.00150866 20.1731 -0.0765963 21.3396 0.0816163C22.5061 0.239829 23.6296 0.628189 24.6448 1.22415C25.6601 1.82011 26.5468 2.6118 27.2536 3.55326L27.3343 3.66113C27.4139 3.76738 27.4718 3.88827 27.5047 4.01689C27.5375 4.14551 27.5447 4.27935 27.5259 4.41075C27.507 4.54216 27.4624 4.66856 27.3947 4.78275C27.327 4.89693 27.2375 4.99666 27.1312 5.07624Z" fill="#E6E6E6"/>
<path d="M52.6556 3.55326C53.3624 2.6118 54.2491 1.82011 55.2643 1.22415C56.2795 0.628187 57.403 0.23983 58.5696 0.0816169C59.7361 -0.0765957 60.9224 -0.00151023 62.0597 0.302516C63.197 0.606543 64.2626 1.13345 65.1946 1.85266C69.0495 4.83263 69.709 10.4064 66.7881 14.3063C66.7086 14.4125 66.6088 14.5021 66.4946 14.5698C66.3805 14.6375 66.2541 14.682 66.1227 14.7009C65.9912 14.7198 65.8574 14.7126 65.7288 14.6797C65.6002 14.6468 65.4793 14.589 65.373 14.5094C60.3812 12.5982 56.2876 9.29097 52.7779 5.07624C52.5634 4.91552 52.4214 4.67613 52.3833 4.41075C52.3452 4.14536 52.4141 3.87572 52.5748 3.66112L52.6556 3.55326Z" fill="#E6E6E6"/>
<path d="M51.403 64.0324C51.221 64.1347 51.0869 64.305 51.0302 64.5059C50.9734 64.7068 50.9987 64.922 51.1003 65.1044L55.646 73.2275C55.748 73.4097 55.9183 73.544 56.1193 73.6007C56.3203 73.6575 56.5356 73.6321 56.7179 73.5301C56.9001 73.4281 57.0344 73.2578 57.0912 73.0568C57.148 72.8558 57.1226 72.6405 57.0206 72.4582L52.475 64.3351C52.3727 64.1531 52.2024 64.0191 52.0015 63.9623C51.8006 63.9056 51.5854 63.9308 51.403 64.0324Z" fill="#E6E6E6"/>
<path d="M27.4342 64.3348L22.8885 72.4579C22.7866 72.6402 22.7612 72.8555 22.818 73.0565C22.8748 73.2575 23.0091 73.4277 23.1913 73.5297C23.3736 73.6317 23.5889 73.6571 23.7899 73.6004C23.9909 73.5437 24.1612 73.4094 24.2632 73.2272L28.8089 65.1041C28.8594 65.0138 28.8917 64.9145 28.9038 64.8117C28.916 64.709 28.9078 64.6049 28.8797 64.5053C28.8516 64.4058 28.8041 64.3127 28.7401 64.2315C28.676 64.1503 28.5966 64.0825 28.5063 64.0319C28.416 63.9814 28.3167 63.9492 28.2139 63.9371C28.1112 63.9249 28.0071 63.9332 27.9075 63.9613C27.808 63.9894 27.7149 64.0369 27.6337 64.101C27.5525 64.1651 27.4847 64.2445 27.4342 64.3348Z" fill="#E6E6E6"/>
<path d="M56.5666 75.3075C57.9112 75.3075 59.0011 74.2176 59.0011 72.873C59.0011 71.5285 57.9112 70.4385 56.5666 70.4385C55.2221 70.4385 54.1321 71.5285 54.1321 72.873C54.1321 74.2176 55.2221 75.3075 56.5666 75.3075Z" fill="#E6E6E6"/>
<path d="M58.2851 13.0126C59.6297 13.0126 60.7196 11.9226 60.7196 10.5781C60.7196 9.23353 59.6297 8.14355 58.2851 8.14355C56.9406 8.14355 55.8506 9.23353 55.8506 10.5781C55.8506 11.9226 56.9406 13.0126 58.2851 13.0126Z" fill="#E6E6E6"/>
<path d="M39.8112 7.28507C41.1558 7.28507 42.2458 6.1951 42.2458 4.85054C42.2458 3.50599 41.1558 2.41602 39.8112 2.41602C38.4667 2.41602 37.3767 3.50599 37.3767 4.85054C37.3767 6.1951 38.4667 7.28507 39.8112 7.28507Z" fill="#E6E6E6"/>
<path d="M22.197 12.7265C23.5415 12.7265 24.6315 11.6365 24.6315 10.292C24.6315 8.9474 23.5415 7.85742 22.197 7.85742C20.8524 7.85742 19.7625 8.9474 19.7625 10.292C19.7625 11.6365 20.8524 12.7265 22.197 12.7265Z" fill="#E6E6E6"/>
<path d="M23.7722 75.3075C25.1167 75.3075 26.2067 74.2176 26.2067 72.873C26.2067 71.5285 25.1167 70.4385 23.7722 70.4385C22.4276 70.4385 21.3376 71.5285 21.3376 72.873C21.3376 74.2176 22.4276 75.3075 23.7722 75.3075Z" fill="#E6E6E6"/>
<path d="M54.6568 51.0843C54.7527 51.2345 54.8805 51.3619 55.031 51.4575C55.1816 51.553 55.3512 51.6144 55.528 51.6373C55.7048 51.6602 55.8845 51.6441 56.0544 51.59C56.2243 51.5359 56.3803 51.4453 56.5114 51.3244L60.3315 53.3713L60.1266 51.1285L56.5304 49.5286C56.3127 49.3218 56.0268 49.2021 55.7268 49.1921C55.4268 49.1821 55.1335 49.2825 54.9026 49.4742C54.6716 49.666 54.5191 49.9358 54.4738 50.2325C54.4285 50.5293 54.4936 50.8323 54.6568 51.0843Z" fill="#FFB7B7"/>
<path d="M57.4404 51.8662L58.9374 49.7998L66.1494 53.2091L75.1238 51.5252C75.5674 51.442 76.0238 51.4574 76.4608 51.5705C76.8978 51.6835 77.3045 51.8914 77.6521 52.1793C77.9997 52.4672 78.2796 52.828 78.4721 53.2363C78.6645 53.6446 78.7647 54.0902 78.7656 54.5415C78.7662 55.3567 78.4434 56.1389 77.868 56.7164C77.2926 57.2939 76.5117 57.6196 75.6964 57.622L65.4118 57.6411L57.4404 51.8662Z" fill="#3F3D56"/>
<path d="M79.6309 72.1982C79.4785 72.443 79.3227 72.6866 79.1658 72.9281C78.8744 73.3775 78.5751 73.8203 78.268 74.2564C78.268 74.2575 78.2669 74.2575 78.2658 74.2586C78.0866 74.4246 77.8888 74.5691 77.6762 74.6892C77.6673 74.6959 77.6572 74.7003 77.6483 74.7059C77.4918 74.7924 77.3251 74.8593 77.1521 74.905C77.0898 74.9206 77.0264 74.9362 76.9641 74.9518C76.7394 75.0052 76.5169 75.0508 76.2955 75.0908C75.9016 75.1609 75.5123 75.211 75.1251 75.2421C75.0939 75.2455 75.0628 75.2477 75.0316 75.2499C73.4396 75.3667 71.8898 75.1787 70.2722 74.8705C69.4734 74.7192 68.6579 74.5379 67.8135 74.3499C67.5376 74.2876 67.2605 74.2264 66.9802 74.1652C66.959 74.1607 66.9368 74.1552 66.9145 74.1507C66.514 74.0628 66.1068 73.9761 65.6896 73.8904C65.1645 73.7825 64.6227 73.6779 64.0598 73.5789L64.0998 74.3721C64.1331 74.9823 64.26 75.5838 64.4758 76.1555C64.7162 76.8587 64.9064 77.4149 64.5048 78.5731L64.3112 79.1338C64.4115 79.4122 64.446 79.7102 64.4118 80.0041C64.3776 80.2981 64.2758 80.5802 64.1143 80.8282L64.0753 80.8872L65.6896 84.9713L65.7942 85.2361H64.9676L63.9507 85.2372H62.2274L59.7409 80.2486L59.6218 80.0105V79.9983L59.8788 70.4115C59.8822 70.3269 59.8888 70.2413 59.9 70.1567C59.9453 69.7723 60.0667 69.4008 60.2572 69.0639C60.4476 68.7269 60.7032 68.4313 61.0092 68.1942C61.3023 67.9651 61.6381 67.7965 61.997 67.6984C62.3559 67.6002 62.7307 67.5744 63.0996 67.6223L63.9507 67.7325L65.6896 67.9572L66.9145 68.1163L66.939 68.1196L70.5514 68.5869L70.8107 67.53L70.8585 67.5122L72.3793 66.9548L77.6394 65.0268L77.6528 65.0223L77.9988 64.8955L78.0399 64.9623C78.0522 64.9823 78.0644 65.0023 78.0756 65.0223C78.4175 65.6354 78.696 66.2818 78.9066 66.9515C79.2608 68.0454 79.5524 69.1587 79.78 70.2858C79.79 70.3347 79.7989 70.3792 79.8067 70.4193L79.81 70.4315C79.8133 70.4504 79.8156 70.4627 79.8167 70.466C79.938 70.9711 79.8534 71.5874 79.6309 72.1982Z" fill="#2F2E41"/>
<path d="M79.8531 68.6648C79.8364 68.5936 79.8153 68.5213 79.7931 68.4512C79.6164 67.9203 79.4107 67.3996 79.1767 66.8914C78.9142 66.3128 78.5993 65.6932 78.2244 65.0223C78.043 64.6974 77.848 64.3596 77.6392 64.0088C77.5346 63.833 77.4259 63.6539 77.3132 63.4714C77.3088 63.463 77.304 63.4549 77.2987 63.447L77.2665 63.3936L72.062 64.09L70.124 64.3492L70.0083 65.3149L69.9804 65.5541C69.9793 65.5541 69.9793 65.5541 69.9804 65.5552L69.9026 66.2072V66.2083L69.7991 67.0694L69.7902 67.0683L66.9143 66.6956L63.9505 66.3118L62.3584 66.1059C61.9895 66.0579 61.6146 66.0837 61.2557 66.1818C60.8969 66.28 60.5611 66.4486 60.268 66.6778C59.9621 66.9149 59.7065 67.2106 59.5161 67.5475C59.3256 67.8845 59.2042 68.2559 59.1588 68.6403C59.1488 68.7182 59.1421 68.7983 59.1387 68.8773L57.6368 72.4363C56.7381 74.5648 56.1657 76.8167 55.9391 79.116L54.8376 82.6372L54.9945 82.6517L57.3286 82.8686L57.945 82.9265L59.3023 80.945C59.4569 80.7192 59.6038 80.4867 59.7406 80.2486C59.9659 79.8597 60.1662 79.4569 60.3403 79.0426L63.2763 72.0558C63.5032 72.0948 63.728 72.1318 63.9505 72.1671C64.9796 72.334 65.9675 72.4701 66.9143 72.5754C69.9927 72.9191 72.6583 72.9458 75.0314 72.6544C75.6978 72.5731 76.342 72.4663 76.9639 72.3339C77.1919 72.2861 77.4171 72.2346 77.6392 72.1793C77.6915 72.1671 77.7426 72.1548 77.7938 72.1415C78.2536 72.0229 78.6763 71.7909 79.0233 71.4667C79.3702 71.1425 79.6303 70.7365 79.7797 70.2858C79.9581 69.7635 79.9836 69.2011 79.8531 68.6648Z" fill="#2F2E41"/>
<path d="M79.4248 70.2768C79.3228 70.2766 79.2224 70.2517 79.1322 70.2042L70.0708 65.4694L69.9661 65.0408L69.7688 63.6844L69.7715 63.6716L70.6333 59.6986C70.6175 59.6645 70.5845 59.6085 70.5472 59.5453C70.1625 58.8935 68.9916 56.9096 71.2262 54.1778L75.1494 49.6039L78.5166 49.459L78.5549 49.5074C79.4553 50.6374 80.0625 51.9725 80.3226 53.3937C80.5827 54.815 80.4876 56.2786 80.0458 57.6543L79.6952 63.9864L80.0712 65.2652C80.2911 66.0167 80.2547 66.82 79.9679 67.5486L80.0541 69.6192C80.0574 69.7041 80.0437 69.7888 80.0136 69.8682C79.9835 69.9477 79.9377 70.0202 79.879 70.0816C79.8203 70.143 79.7498 70.1919 79.6717 70.2254C79.5937 70.2589 79.5097 70.2764 79.4248 70.2768Z" fill="#3F3D56"/>
<path d="M71.5647 75.499C71.7182 75.4083 71.8499 75.2851 71.9507 75.1379C72.0514 74.9908 72.1187 74.8234 72.1477 74.6475C72.1767 74.4716 72.1668 74.2914 72.1187 74.1198C72.0706 73.9481 71.9854 73.7891 71.8692 73.6539L74.0477 69.9072L71.7991 70.034L70.0751 73.5724C69.8609 73.7827 69.7313 74.0643 69.7109 74.3638C69.6904 74.6633 69.7805 74.9598 69.9641 75.1973C70.1478 75.4348 70.4121 75.5967 70.7071 75.6523C71.0021 75.7079 71.3072 75.6533 71.5647 75.499Z" fill="#FFB7B7"/>
<path d="M72.4438 72.7443L70.4307 71.1763L74.0887 64.0873L72.718 55.0598C72.6503 54.6135 72.6816 54.1579 72.8098 53.7251C72.938 53.2924 73.1598 52.8931 73.4596 52.5557C73.7595 52.2184 74.1299 51.9511 74.5446 51.773C74.9593 51.5949 75.4081 51.5103 75.8592 51.5251C76.6739 51.5528 77.4444 51.9026 78.0016 52.4978C78.5587 53.0929 78.857 53.8847 78.8311 54.6995L78.4924 64.9786L72.4438 72.7443Z" fill="#3F3D56"/>
<path d="M72.9895 47.7039V44.372C72.9887 43.1878 73.4584 42.0519 74.2952 41.214C75.132 40.3762 76.2673 39.9051 77.4514 39.9043C78.6356 39.9035 79.7715 40.3732 80.6093 41.21C81.4472 42.0468 81.9183 43.1821 81.9191 44.3662V44.372C82.706 46.0118 82.2137 46.7914 81.9191 47.7039C81.9188 47.8628 81.8556 48.0152 81.7432 48.1275C81.6308 48.2399 81.4785 48.3032 81.3196 48.3034H73.5893C73.4303 48.3032 73.2779 48.24 73.1655 48.1276C73.053 48.0153 72.9898 47.8629 72.9895 47.7039Z" fill="#2F2E41"/>
<path d="M75.9905 48.0855C77.8363 48.0855 79.3325 46.5892 79.3325 44.7434C79.3325 42.8977 77.8363 41.4014 75.9905 41.4014C74.1447 41.4014 72.6484 42.8977 72.6484 44.7434C72.6484 46.5892 74.1447 48.0855 75.9905 48.0855Z" fill="#FFB7B7"/>
<path d="M79.4883 45.6203C79.458 45.6155 79.4277 45.6092 79.3974 45.6044C78.8761 45.5119 78.3548 45.421 77.8351 45.327L77.7872 44.1489L77.1575 45.2042C75.7211 45.6809 74.3772 45.4115 73.113 44.8168C72.696 44.6189 72.2914 44.3958 71.9014 44.1489C72.0076 43.4973 72.2581 42.8777 72.6346 42.3354C73.0111 41.7931 73.5041 41.3418 74.0775 41.0146C74.1253 40.9875 74.1715 40.9636 74.2194 40.9397L74.22 40.9396L74.2205 40.9392L74.2208 40.9387L74.221 40.9381C74.3023 40.8998 74.3852 40.8632 74.4681 40.8297C75.1171 40.5761 75.8247 40.5118 76.5088 40.6445C77.1929 40.7771 77.8253 41.1012 78.3325 41.579C79.3527 42.553 79.8119 44.1616 79.4883 45.6203Z" fill="#2F2E41"/>
</g>
<defs>
<clipPath id="clip0_1169_7424">
<rect width="96.7611" height="90.4996" fill="white"/>
</clipPath>
</defs>
</svg>
